<?xml version="1.0" standalone="no"?><svg xmlns="http://www.w3.org/2000/svg" viewBox="0 0 1440 320"><path fill="#5FC60A" fill-opacity="1" d="M0,32L18.5,80C36.9,128,74,224,111,218.7C147.7,213,185,107,222,85.3C258.5,64,295,128,332,176C369.2,224,406,256,443,272C480,288,517,288,554,282.7C590.8,277,628,267,665,224C701.5,181,738,107,775,96C812.3,85,849,139,886,133.3C923.1,128,960,64,997,64C1033.8,64,1071,128,1108,176C1144.6,224,1182,256,1218,272C1255.4,288,1292,288,1329,288C1366.2,288,1403,288,1422,288L1440,288L1440,320L1421.5,320C1403.1,320,1366,320,1329,320C1292.3,320,1255,320,1218,320C1181.5,320,1145,320,1108,320C1070.8,320,1034,320,997,320C960,320,923,320,886,320C849.2,320,812,320,775,320C738.5,320,702,320,665,320C627.7,320,591,320,554,320C516.9,320,480,320,443,320C406.2,320,369,320,332,320C295.4,320,258,320,222,320C184.6,320,148,320,111,320C73.8,320,37,320,18,320L0,320Z"></path></svg>