<?xml version="1.0" standalone="no"?><svg xmlns="http://www.w3.org/2000/svg" viewBox="0 0 1440 320"><path fill="#A4D97C" fill-opacity="1" d="M0,224L18.5,192C36.9,160,74,96,111,58.7C147.7,21,185,11,222,21.3C258.5,32,295,64,332,64C369.2,64,406,32,443,58.7C480,85,517,171,554,186.7C590.8,203,628,149,665,122.7C701.5,96,738,96,775,117.3C812.3,139,849,181,886,192C923.1,203,960,181,997,181.3C1033.8,181,1071,203,1108,218.7C1144.6,235,1182,245,1218,224C1255.4,203,1292,149,1329,112C1366.2,75,1403,53,1422,42.7L1440,32L1440,320L1421.5,320C1403.1,320,1366,320,1329,320C1292.3,320,1255,320,1218,320C1181.5,320,1145,320,1108,320C1070.8,320,1034,320,997,320C960,320,923,320,886,320C849.2,320,812,320,775,320C738.5,320,702,320,665,320C627.7,320,591,320,554,320C516.9,320,480,320,443,320C406.2,320,369,320,332,320C295.4,320,258,320,222,320C184.6,320,148,320,111,320C73.8,320,37,320,18,320L0,320Z"></path></svg>