<?xml version="1.0" standalone="no"?><svg xmlns="http://www.w3.org/2000/svg" viewBox="0 0 1440 320"><path fill="#5FC60A" fill-opacity="1" d="M0,32L24,48C48,64,96,96,144,144C192,192,240,256,288,240C336,224,384,128,432,106.7C480,85,528,139,576,133.3C624,128,672,64,720,53.3C768,43,816,85,864,128C912,171,960,213,1008,213.3C1056,213,1104,171,1152,160C1200,149,1248,171,1296,170.7C1344,171,1392,149,1416,138.7L1440,128L1440,320L1416,320C1392,320,1344,320,1296,320C1248,320,1200,320,1152,320C1104,320,1056,320,1008,320C960,320,912,320,864,320C816,320,768,320,720,320C672,320,624,320,576,320C528,320,480,320,432,320C384,320,336,320,288,320C240,320,192,320,144,320C96,320,48,320,24,320L0,320Z"></path></svg>