<?xml version="1.0" standalone="no"?><svg xmlns="http://www.w3.org/2000/svg" viewBox="0 0 1440 320"><path fill="#5FC60A" fill-opacity="1" d="M0,96L24,85.3C48,75,96,53,144,58.7C192,64,240,96,288,96C336,96,384,64,432,80C480,96,528,160,576,181.3C624,203,672,181,720,186.7C768,192,816,224,864,213.3C912,203,960,149,1008,154.7C1056,160,1104,224,1152,213.3C1200,203,1248,117,1296,85.3C1344,53,1392,75,1416,85.3L1440,96L1440,320L1416,320C1392,320,1344,320,1296,320C1248,320,1200,320,1152,320C1104,320,1056,320,1008,320C960,320,912,320,864,320C816,320,768,320,720,320C672,320,624,320,576,320C528,320,480,320,432,320C384,320,336,320,288,320C240,320,192,320,144,320C96,320,48,320,24,320L0,320Z"></path></svg>